<svg xmlns="http://www.w3.org/2000/svg" viewBox="0 0 483 361"><defs><style>.\35 67bfc93-0cd6-432d-99d2-274bf571b7c1,.\36 1dc39eb-4173-4d0d-a148-b61a908c38cd{fill:#fff;stroke:#000;stroke-miterlimit:10;}.\35 67bfc93-0cd6-432d-99d2-274bf571b7c1{stroke-width:5px;}.cb5c241e-29d5-43ff-9512-0dbca61eefb2{opacity:0.15;}.\36 1dc39eb-4173-4d0d-a148-b61a908c38cd{stroke-width:4px;}</style></defs><title>wrong_1</title><g id="52532d96-9ca3-4492-a919-32edd310dcd8" data-name="Layer 2"><g id="04b4be0f-b63c-421e-ae4f-d6368c6c2c02" data-name="Layer 11"><circle class="567bfc93-0cd6-432d-99d2-274bf571b7c1" cx="180.5" cy="180.5" r="178"/><path class="cb5c241e-29d5-43ff-9512-0dbca61eefb2" d="M180,110c88.69,0,162.21,44.09,175.76,101.78A178,178,0,1,0,2.5,180.5a179.21,179.21,0,0,0,2.34,28.86C19.85,152.86,92.56,110,180,110Z"/><path class="cb5c241e-29d5-43ff-9512-0dbca61eefb2" d="M180,352a247.38,247.38,0,0,1-81-13.24,178.24,178.24,0,0,0,165.2-1.12C239.1,346.8,210.44,352,180,352Z"/></g><g id="717612ff-9471-4fd2-9cb1-fcd1a536b449" data-name="Layer 12"><path class="61dc39eb-4173-4d0d-a148-b61a908c38cd" d="M433,202a48,48,0,0,0-41.11,23.22L367,219l19.28,20A48,48,0,1,0,433,202Z"/></g><g id="fb5ea57f-fe5c-4476-badd-2af222f1e46e" data-name="not quite"><path d="M120.31,240.54a42,42,0,0,0-11-20.5c-1.21-1.26-3.13.66-1.92,1.92a39.3,39.3,0,0,1,10.34,19.3c.37,1.71,3,1,2.61-.72Z"/><path d="M117.81,232A323.13,323.13,0,0,1,235,216c1.93.09,1.93-2.91,0-3a325.58,325.58,0,0,0-118,16.17c-1.82.6-1,3.5.8,2.89Z"/><path d="M437.18,242.34c3.9,2.85,4.77,8.2,2.76,12.45-2.32,4.89-7.85,7.11-13,7.12-8,0-28.18-9.81-22.56-20.18,4.91-9.06,23.11-8.33,29.11-1.3,1.36,1.6,3.5,4.78,2.69,7l-2.4,1.89q-1.53,2.76-3.89,1.49a18.37,18.37,0,0,1-4-1.53,28.79,28.79,0,0,1-11.27-9.31c-2.58-3.71-4.88-10-1-13.75,3.41-3.33,13-3.7,17-1.55,4.29,2.29,5.43,8.51,4.86,13C434,249,419,240.92,422.86,232c3.75-8.7,17.28-7.6,23.87-3.35,4.24,2.73,7.23,8.09,6,13.22-1.29,5.37-8,9.42-12.94,5.47-5.94-4.74-.77-12.65,5-14.56,6.3-2.11,10.89.95,13.48,6.5,4,8.46,7.17,29.79-9,25-4.41-1.31-8.5-4.46-11.55-7.81a20.76,20.76,0,0,1-3.82-5.2c-.7-1.66-.08-6.2,1.49-7.55.87-.75,3.19-.55,4.21-.61,15.62-.92,9,19.92-3,20.91a14.53,14.53,0,0,1-11.1-4.26c-3.28-3.24-5.82-10.55-1.37-14,3.45-2.7,7.91-.29,9.78,3.29a24,24,0,0,1,1.93,7c1,5.69.75,13.68-7.14,13.4a25,25,0,0,1-12.27-4.3,27.38,27.38,0,0,1-5.48-4.74c-1.91-2.19-1.64-1.87-.69-5.2s1.29-3.67,4.44-4.35c8.88-1.92,19.34,3.6,20.76,13,1,6.49-2.89,11.83-9.79,11.83-7.65,0-16.22-5.67-9.38-13.63,6.55-7.62,22.84-15.67,30.1-5.23,3,4.25,6.22,11.35,3.54,16.27-2.91,5.34-9.94,3.94-14.71,2.23-3.46-1.24-16-5.58-14.16-11.11,1.65-5,10-8.36,14.52-9.42,1.44-.34.83-2.56-.61-2.22-5.78,1.36-16.3,6.14-16.85,13.17-.46,5.82,10.82,9.55,14.94,11.2,5.68,2.27,14.32,4.18,18.56-1.75s0-15.05-3.66-20.12c-4.89-6.69-12.24-6.42-19.46-3.77-6.39,2.34-14.79,7.27-16.87,14.26-4,13.29,21.1,17,25.5,5.18,5.27-14.18-11.79-25.55-24.34-21.76-6.31,1.91-8.56,6.47-4.43,11.91,4.57,6,12.73,10.65,20.35,10.87,7.33.22,10.18-5.38,9.88-12-.28-6.17-1.92-15.35-8.79-17.47-5.57-1.72-9.68,3-10.2,8.16-.65,6.53,4.15,12.39,10,14.74A15.62,15.62,0,0,0,447,261c3.89-4.25,6.43-12.3,2.28-17.24-3.45-4.12-13-4.26-17.14-1.19-5.42,4,.27,11.4,3.36,14.93,4.59,5.25,12.84,11.33,20.28,9.42s9-10.17,8-16.66-3.29-15.85-9.64-19.33c-5.89-3.23-14.5,0-17.76,5.61-7.16,12.31,11.72,20.37,17.59,8.67,7.45-14.83-12.68-24.88-24.68-21.15-5.67,1.76-10.36,6.55-9.32,12.86,1,6.13,8,10.66,13.94,8,5.6-2.47,4.49-11.92,2.65-16.58-2.81-7.12-10.22-7.74-16.91-6.82-6.4.88-11.13,4.48-10.32,11.45.89,7.67,7.49,14.06,14,17.55,4.72,2.55,13.16,6,14.95-1.56,1.51-6.37-3.87-12.39-9.4-14.54-6.83-2.66-17.08-2.12-23.1,2.35-5.7,4.24-6,11.19-1.31,16.24,8.53,9.14,30.49,18.62,37.69,2.55a12.4,12.4,0,0,0-3.82-15.22c-1.2-.88-2.35,1.12-1.16,2Z"/></g></g></svg>