<svg xmlns="http://www.w3.org/2000/svg" viewBox="0 0 483 361"><defs><style>.\30 a6f04fd-4cb7-43cd-a9f1-26c193f24e7e,.\32 43b0f4e-d1f6-4e91-8626-e12d5442f98e{fill:#fff;}.\30 a6f04fd-4cb7-43cd-a9f1-26c193f24e7e,.\32 43b0f4e-d1f6-4e91-8626-e12d5442f98e,.\34 2feaec2-2576-4ac8-86b8-df4c39e94dd2,.a2c202d2-072f-44f7-a435-9299f57b877c{stroke:#000;stroke-miterlimit:10;}.\32 43b0f4e-d1f6-4e91-8626-e12d5442f98e{stroke-width:5px;}.a94f5826-8f4d-4799-8d7e-3738abe852e9{opacity:0.15;}.\30 a6f04fd-4cb7-43cd-a9f1-26c193f24e7e,.a2c202d2-072f-44f7-a435-9299f57b877c{stroke-width:4px;}.\34 2feaec2-2576-4ac8-86b8-df4c39e94dd2,.a2c202d2-072f-44f7-a435-9299f57b877c{fill:#ae292a;}.\34 2feaec2-2576-4ac8-86b8-df4c39e94dd2{stroke-width:3.25px;}</style></defs><title>failure</title><g id="bc1c8427-03d0-4ab3-8c45-01125f02e0b4" data-name="Layer 2"><g id="d543b08f-e740-467d-b4a3-5d44ca5a5156" data-name="Layer 11"><circle class="243b0f4e-d1f6-4e91-8626-e12d5442f98e" cx="180.5" cy="180.5" r="178"/><path class="a94f5826-8f4d-4799-8d7e-3738abe852e9" d="M180,110c88.69,0,162.21,44.09,175.76,101.78A178,178,0,1,0,2.5,180.5a179.21,179.21,0,0,0,2.34,28.86C19.85,152.86,92.56,110,180,110Z"/><path class="a94f5826-8f4d-4799-8d7e-3738abe852e9" d="M180,352a247.38,247.38,0,0,1-81-13.24,178.24,178.24,0,0,0,165.2-1.12C239.1,346.8,210.44,352,180,352Z"/></g><g id="45654438-4b02-4fee-9c20-2741f7a594ad" data-name="Layer 12"><path class="0a6f04fd-4cb7-43cd-a9f1-26c193f24e7e" d="M433,202a48,48,0,0,0-41.11,23.22L367,219l19.28,20A48,48,0,1,0,433,202Z"/></g><g id="894b0eb7-8230-4b0f-95f0-5fbd1c3eda2f" data-name="bad"><path class="42feaec2-2576-4ac8-86b8-df4c39e94dd2" d="M427.88,237.39,443.5,187.5l23,16-33.74,36.76A3,3,0,0,1,427.88,237.39Z"/><circle class="a2c202d2-072f-44f7-a435-9299f57b877c" cx="418" cy="259" r="12"/><path d="M120.23,209.85a197.26,197.26,0,0,1,123.69-9.61,147.5,147.5,0,0,1,14.29,4.18c7.47,2.7,7,10.2,3.82,16.23-6.3,11.77-18.12,11-29.61,9.39a282,282,0,0,0-64.89-1.69q-8.72.79-17.39,2.11c-6.55,1-13.67,3.36-20.31,3.05-5-.23-9.09-2.71-9.85-8-.27-1.91,0-3.86-.34-5.77-.47-2.69-2.2-4.43-1.77-7.14.38-2.42.72-2.06,2.7-2.91,1.77-.76.24-3.34-1.51-2.59-2.37,1-4.75.76-5.38,4.05a6.26,6.26,0,0,0,.6,3.7c.73,1.76,1.9,3,2.36,4.94s.14,3.83.34,5.73c1.13,10.93,12.08,11.67,20.83,10.13,28.17-5,56.24-6.89,84.76-3.85,11.08,1.18,24.09,5.55,34.23-1.12,6.64-4.37,11.94-13.3,10.23-21.47-.94-4.47-4-6.24-8-7.7a156.5,156.5,0,0,0-18.55-5.2,199.4,199.4,0,0,0-121,10.63C117.68,207.69,118.45,210.6,120.23,209.85Z"/></g></g></svg>