<svg xmlns="http://www.w3.org/2000/svg" viewBox="0 0 483 361"><defs><style>.\33 7c97d39-427d-46a4-9778-a2ad66bd412f,.\37 982ae7f-c610-4fa9-aac5-48615823e6b4{fill:#fff;stroke:#000;stroke-miterlimit:10;}.\33 7c97d39-427d-46a4-9778-a2ad66bd412f{stroke-width:5px;}.faea9fd8-02fd-43e9-bbd3-bad0d4ada996{opacity:0.15;}.\37 982ae7f-c610-4fa9-aac5-48615823e6b4{stroke-width:4px;}.\37 8d99589-37bd-4b90-b959-68691a6a3c3d{fill:#f8aeb9;}</style></defs><title>good</title><g id="d93a518e-cf16-4572-bea4-1a3c2e53a8bf" data-name="Layer 2"><g id="a22e92db-5ba1-44e4-9c79-1e2d1f057be0" data-name="Layer 11"><circle class="37c97d39-427d-46a4-9778-a2ad66bd412f" cx="180.5" cy="180.5" r="178"/><path class="faea9fd8-02fd-43e9-bbd3-bad0d4ada996" d="M180,110c88.69,0,162.21,44.09,175.76,101.78A178,178,0,1,0,2.5,180.5a179.21,179.21,0,0,0,2.34,28.86C19.85,152.86,92.56,110,180,110Z"/><path class="faea9fd8-02fd-43e9-bbd3-bad0d4ada996" d="M180,352a247.38,247.38,0,0,1-81-13.24,178.24,178.24,0,0,0,165.2-1.12C239.1,346.8,210.44,352,180,352Z"/></g><g id="8a28163a-7686-4958-85ea-107b6c591299" data-name="Layer 12"><path class="7982ae7f-c610-4fa9-aac5-48615823e6b4" d="M433,202a48,48,0,0,0-41.11,23.22L367,219l19.28,20A48,48,0,1,0,433,202Z"/></g><g id="2a38f03f-5f63-4c04-8b6e-19ee60c4431f" data-name="good"><path d="M119.05,216.9c9.17,22.64,26.53,48.84,53.36,50.46,12.36.75,24.79-.91,35.51-7.44,9.21-5.61,16.41-13.33,22.23-22.29,5.14-7.9,9.86-16.09,14.37-24.37a1.52,1.52,0,0,0-.9-2.2,213.44,213.44,0,0,0-98.77-3.69q-8.46,1.68-16.76,4.05c-3.55,1-6.77,1.27-8.9,4.32-1.11,1.59,1.49,3.09,2.59,1.51,1.93-2.77,8.22-3.29,11.48-4.14q7.46-2,15.05-3.37a209.62,209.62,0,0,1,32.07-3.39,211.9,211.9,0,0,1,62.44,7.6l-.9-2.2c-7.65,14-15.33,29.21-27.6,39.76-19.07,16.39-49,18.33-68.15,1.11-10.93-9.82-18.76-23-24.24-36.52C121.23,214.33,118.33,215.11,119.05,216.9Z"/><path class="78d99589-37bd-4b90-b959-68691a6a3c3d" d="M424,274.55c-2.26,0-4.64-.07-7.08-.21l-1.22-.07-.5-1.12c-5.65-12.74-8.34-23.36-8-31.58a15.23,15.23,0,0,1,1.64-7.77,8.14,8.14,0,0,1,1-1.73,15.28,15.28,0,0,1,27.8,9.86,15.27,15.27,0,0,1,19.4,22.22,8.48,8.48,0,0,1-1,1.32,15.16,15.16,0,0,1-6.1,4.38c-6.3,3.11-15,4.69-26,4.69Z"/><path d="M422.49,227.47a13.27,13.27,0,0,1,11,20.72,13.27,13.27,0,1,1,22,14.91,6,6,0,0,1-.78,1,13.19,13.19,0,0,1-5.42,3.88c-4.6,2.29-12.37,4.52-25.19,4.52q-3.26,0-7-.2c-6.68-15.06-8.09-24.8-7.82-30.78a13.2,13.2,0,0,1,1.42-6.84,6.12,6.12,0,0,1,.84-1.43,13.26,13.26,0,0,1,11-5.82m0-4a17.26,17.26,0,0,0-14.2,7.42,10.71,10.71,0,0,0-1.24,2.08,17.23,17.23,0,0,0-1.82,8.61c-.33,8.52,2.42,19.41,8.17,32.38l1,2.24,2.44.14c2.47.14,4.89.21,7.19.21,11.22,0,20.23-1.63,26.81-4.86a17.25,17.25,0,0,0,6.83-4.93,10.64,10.64,0,0,0,1.14-1.52,17.27,17.27,0,0,0-19.13-26.18q-.08-.78-.23-1.55a17.27,17.27,0,0,0-16.95-14Z"/></g></g></svg>