<svg xmlns="http://www.w3.org/2000/svg" viewBox="0 0 483 361"><defs><style>.\37 62632c3-873b-4331-baca-44c4f37f1bf5,.\38 9c7b7e8-7a37-4681-8a36-6e8505fea3d9{fill:#fff;}.\37 62632c3-873b-4331-baca-44c4f37f1bf5,.\38 9c7b7e8-7a37-4681-8a36-6e8505fea3d9,.\38 c984b81-0d78-41f2-89c7-9fd3d17d22da,.a1074d2f-5e3e-4880-aaad-a0f63f5b782c{stroke:#000;stroke-miterlimit:10;}.\37 62632c3-873b-4331-baca-44c4f37f1bf5{stroke-width:5px;}.\33 00fb696-db33-4f04-b5e6-7e77b72fafbd{opacity:0.15;}.\38 9c7b7e8-7a37-4681-8a36-6e8505fea3d9{stroke-width:4px;}.\38 c984b81-0d78-41f2-89c7-9fd3d17d22da,.a1074d2f-5e3e-4880-aaad-a0f63f5b782c{fill:#3d8488;}.a1074d2f-5e3e-4880-aaad-a0f63f5b782c{stroke-width:3.22px;}.\38 c984b81-0d78-41f2-89c7-9fd3d17d22da{stroke-width:3.97px;}</style></defs><title>idle</title><g id="3bb68d5c-f194-4f9f-a425-f503d3a59b04" data-name="Layer 2"><g id="04bf34b4-673c-482f-8bbd-fafeda4a76fc" data-name="Layer 11"><circle class="762632c3-873b-4331-baca-44c4f37f1bf5" cx="180.5" cy="180.5" r="178"/><path class="300fb696-db33-4f04-b5e6-7e77b72fafbd" d="M180,110c88.69,0,162.21,44.09,175.76,101.78A178,178,0,1,0,2.5,180.5a179.21,179.21,0,0,0,2.34,28.86C19.85,152.86,92.56,110,180,110Z"/><path class="300fb696-db33-4f04-b5e6-7e77b72fafbd" d="M180,352a247.38,247.38,0,0,1-81-13.24,178.24,178.24,0,0,0,165.2-1.12C239.1,346.8,210.44,352,180,352Z"/></g><g id="ed370d72-ae18-48be-b11d-61a6f8b87ef0" data-name="Layer 12"><path class="89c7b7e8-7a37-4681-8a36-6e8505fea3d9" d="M433,202a48,48,0,0,0-41.11,23.22L367,219l19.28,20A48,48,0,1,0,433,202Z"/></g><g id="3a1315b8-5fab-4a1d-8e72-63d726863342" data-name="idle"><path d="M130.67,220.64c15.34,6.14,31.92,13,48.34,15.49,7.31,1.12,14.11-.63,21.13-2.53,8.35-2.26,16.6-4.86,24.77-7.71,1.81-.63,1-3.53-.8-2.89-7.29,2.55-14.65,4.89-22.09,7-8.64,2.42-16.75,4.58-25.72,2.6-15.28-3.38-30.33-9-44.83-14.82-1.79-.72-2.57,2.18-.8,2.89Z"/><path class="a1074d2f-5e3e-4880-aaad-a0f63f5b782c" d="M427.7,237l15.49-49.47L466,203.37l-33.46,36.46A2.93,2.93,0,0,1,427.7,237Z"/><circle class="8c984b81-0d78-41f2-89c7-9fd3d17d22da" cx="417.9" cy="258.41" r="11.9"/></g></g></svg>