<svg xmlns="http://www.w3.org/2000/svg" viewBox="0 0 1490.39 1113.93"><defs><style>.\35 cf9837a-9be9-4efc-be67-78ac83a67623,.\37 c20d168-9d01-4ac5-bf7f-52b4bcbbf7ec{fill:#fff;}.\30 8fda294-084d-4d0a-8a79-a452405d9518,.\35 cf9837a-9be9-4efc-be67-78ac83a67623,.\37 c20d168-9d01-4ac5-bf7f-52b4bcbbf7ec,.\38 49766d1-87f7-46d8-9099-1819192ae2dc{stroke:#000;stroke-miterlimit:10;}.\35 cf9837a-9be9-4efc-be67-78ac83a67623{stroke-width:15.43px;}.d54d493a-a030-4fd7-bdcb-f12eb2ca2b14{opacity:0.15;}.\37 c20d168-9d01-4ac5-bf7f-52b4bcbbf7ec{stroke-width:12.34px;}.\30 8fda294-084d-4d0a-8a79-a452405d9518,.\38 49766d1-87f7-46d8-9099-1819192ae2dc{fill:#3d8488;}.\38 49766d1-87f7-46d8-9099-1819192ae2dc{stroke-width:9.95px;}.\30 8fda294-084d-4d0a-8a79-a452405d9518{stroke-width:12.24px;}</style></defs><title>idle_1</title><g id="265f1359-1d29-442c-88ad-114c7dff00d7" data-name="Layer 2"><g id="9f45b79b-d194-4e91-83d5-0e7e6a81633a" data-name="Layer 11"><circle class="5cf9837a-9be9-4efc-be67-78ac83a67623" cx="556.97" cy="556.97" r="549.25"/><path class="d54d493a-a030-4fd7-bdcb-f12eb2ca2b14" d="M555.42,339.43c273.66,0,500.54,136.05,542.33,314.08a552.59,552.59,0,0,0,8.46-96.54C1106.22,253.62,860.31,7.71,557,7.71S7.71,253.62,7.71,557A553,553,0,0,0,14.94,646C61.24,471.68,285.61,339.43,555.42,339.43Z"/><path class="d54d493a-a030-4fd7-bdcb-f12eb2ca2b14" d="M555.42,1086.16c-90.06,0-175.05-14.73-250.06-40.85a550,550,0,0,0,509.75-3.46C737.79,1070.11,649.37,1086.16,555.42,1086.16Z"/></g><g id="17205776-424a-4aae-9cbb-71b58b92f589" data-name="Layer 12"><path class="7c20d168-9d01-4ac5-bf7f-52b4bcbbf7ec" d="M1336.1,623.31A148,148,0,0,0,1209.23,695l-76.79-19.2,59.5,61.7A148.11,148.11,0,1,0,1336.1,623.31Z"/></g><g id="9f18b4aa-c20b-4d70-ae98-18924ebef65c" data-name="idle"><path d="M403.2,680.83a1178,1178,0,0,0,112.08,38.68c18.64,5.39,37.92,11.37,57.54,10.38,19.08-1,37.93-7.07,56.2-12.24Q661.82,708.37,694,697c5.58-2,3.18-10.91-2.46-8.93Q664,697.8,635.93,706c-18.43,5.4-37.42,11.69-56.53,14-19.55,2.4-38.39-2.85-57-8.15s-37-11-55.24-17.22q-31.06-10.53-61.48-22.79c-5.53-2.22-7.93,6.73-2.46,8.93Z"/><path class="849766d1-87f7-46d8-9099-1819192ae2dc" d="M1319.74,731.22l47.8-152.66,70.38,49L1334.67,740A9,9,0,0,1,1319.74,731.22Z"/><circle class="08fda294-084d-4d0a-8a79-a452405d9518" cx="1289.51" cy="797.37" r="36.72"/></g></g></svg>