<svg xmlns="http://www.w3.org/2000/svg" viewBox="0 0 1498.84 1060.66"><defs><style>.\38 94ceeb8-67e2-4acd-9f52-4bafde136d31{font-size:331.74px;font-family:Raleway-ExtraLight, Raleway;}</style></defs><title>404</title><g id="6dac7c2d-007d-4837-a3bb-4371b3887e21" data-name="Layer 2"><g id="f152dd09-6b3b-449a-8f46-1a3ebf0586cd" data-name="Layer 2"><path d="M409.1,20.1C443.81,30.3,462.5,74.59,447,107c-9.4,19.72-30,30.64-47.28,42.4-17.58,12-32.39,26.77-42.43,45.68C340.45,226.9,336,278.69,375,296.49c14.08,6.42,31.59,6.56,43.92-3.71,13.94-11.61,16.17-30.56,17.12-47.54,1.18-21.17,1.36-42.09,13.65-60.39,12-17.83,32.93-28.2,54.27-22.47,23.27,6.25,33.15,29,26.82,51.36s-22.62,40.8-37.88,57.78c-28.2,31.37-60.77,64.64-102.76,76a109.84,109.84,0,0,1-34.08,3.61c-12.49-.6-24.91-2.79-37.45-2.24-21.47,1-38.95,12.29-53.24,27.69-26.93,29-55.8,72.65-38.79,113.37,15.7,37.6,62.3,53.8,97.62,32.55,6.44-3.88,13.64-10,12-18.42-1.37-7.1-8.34-11.29-13.84-15.08-8.71-6-14.66-13-15.29-23.95-.53-9.16,2.64-18.45,7.75-26,13.57-19.93,40.45-22.7,62.56-22a359.68,359.68,0,0,1,60.19,7c37.15,7.52,76.43,22.33,99.4,54.19,12.31,17.06,20.16,39.65,14.37,60.6-6.42,23.24-28.57,32.42-49.43,39.36-18.8,6.25-36.53,13.23-52.62,25.06a157.33,157.33,0,0,0-39.3,42,148.64,148.64,0,0,0-21.26,53.93c-1.49,8.46-2.44,17.92,1.33,25.95,3.89,8.29,12,11.54,20.36,13.84,24.33,6.72,49.93,12.65,75.32,10,19.28-2,37.37-9.38,54.25-18.66,36-19.79,68.7-49.17,110.39-56.21,49.37-8.35,97.63,16.21,137,43.48C826,744.3,862,776.5,906,794.22c35.51,14.29,78.86,18.34,113.78.18,39.18-20.36,51.31-65.28,75.42-99.09a247.81,247.81,0,0,1,97.74-80.49A239.78,239.78,0,0,1,1254.48,596c22.21-3.63,44.76-4.42,67.17-6.18,40.51-3.18,83.75-10.22,112.74-41.5,25.29-27.29,35.93-67.19,28.67-103.56-7.5-37.57-34.18-69.61-67.65-87.37-31.74-16.85-80.11-25-108.35,3.07-11.49,11.44-17.38,28.93-14.59,45,3.32,19.06,18.83,28.42,35.87,34.32,30.21,10.45,77.75,12.35,88.33-26.17,5.52-20.1-2.26-40.94-12.08-58.32-12.1-21.42-25.88-40.86-31.15-65.37a130.59,130.59,0,0,1-2.46-38c1-12.75,5-24.59,7.66-37,4.18-19.23-.84-36.52-17.61-47.71-17.35-11.58-38.55-11.35-58.22-7-25.46,5.66-50,14.87-75.51,20.7-50.67,11.6-103.89,18.26-155.95,16.24-22.66-.88-48.59-5.72-61.65-26.38-5.38-8.51-8.47-19.15-6.38-29.19,2.45-11.78,12-19.73,22.94-23.58,21.2-7.44,46-1.65,62.74,13,17.06,14.88,24.56,39.24,20,61.27-9,43.33-57.52,61.25-96.62,65.31-21.56,2.24-43.88,1.25-64.64-5.34-22.44-7.13-40.29-21-53.7-40.27-12.19-17.49-21.13-37.07-34.19-54-12.35-16-28.56-29.1-47.24-36.91-36.37-15.21-80.7-6.56-104.22,26.36-6.05,8.47-11,17.83-18.08,25.49-8.1,8.7-18.57,12.51-29.69,15.86-16,4.83-36,12.43-37.45,31.88a1.45,1.45,0,0,0,.74,1.3c28.61,12.11,63.58-4.28,69.76-35.42,2.91-14.7-.45-30.73-9.92-42.47-5.88-7.29-13.93-12.39-20.1-19.39A32.94,32.94,0,0,1,635,101.7c.33-17.67,12.84-35,30.8-37.67,1.9-.29,1.09-3.18-.8-2.89-15.69,2.36-27.47,15.24-31.5,30.19a39.82,39.82,0,0,0,.09,22c2.69,8.65,8.93,14.92,15.56,20.78,8.94,7.9,16.85,15.64,20.37,27.41a50.38,50.38,0,0,1-1.2,32.47c-8.25,21.17-32.6,32.76-54.47,28-2.46-.53-5.25-.81-6.53-3.07-1.63-2.88.66-6.43,2.37-9,3.52-5.36,9-9.33,14.66-12.19,10-5,21.3-6.65,31.51-11.12,20.77-9.1,27.2-30.56,41.84-46,15.61-16.51,38.79-24.74,61.29-24,24,.75,46.81,11.8,64.33,27.85,32.75,30,42.27,78.73,82.44,101.56,35.88,20.39,83.68,19.63,122.14,7.34,36.79-11.76,70.22-41,64.77-83-5.2-40.1-47.16-68.47-86.33-55.49-17.52,5.8-29.1,20.6-26.16,39.45,2.87,18.41,16.45,32.32,33.29,39.07,22.21,8.91,47.89,7.44,71.31,6.62a655.54,655.54,0,0,0,79.2-7.62,652.35,652.35,0,0,0,79.58-17.7c24.75-7.16,51.84-19,78-12.63,10.55,2.58,20.76,8.06,27.75,16.52,8.79,10.64,9.14,23.69,6.19,36.66-2.71,11.92-6.33,23.41-7.44,35.65a132.8,132.8,0,0,0,1.64,35.67c4.4,24.24,16.63,43.89,29,64.71s24.58,48.6,10.75,71.73c-11,18.39-33.81,22.12-53.47,20.08a122.1,122.1,0,0,1-29.39-7c-11.39-4.18-22.68-10-28.18-21.4-9.08-18.85-.94-43.3,15-55.73,18.79-14.63,44.79-16,67.27-11.06,41.74,9.12,79,39.74,94.26,79.93,15,39.69,6.16,87.25-22.75,118.49-32.6,35.24-82.7,38.77-127.61,41.84-22.05,1.51-44.22,3-65.82,8a245.22,245.22,0,0,0-59.21,22.07,249.32,249.32,0,0,0-93.34,85.08c-12.25,19.06-21,40.24-34.32,58.65-13.85,19.19-32.73,32.56-55.78,38.24-45.59,11.24-91.68-5.92-130-30-42.09-26.49-78.81-61.35-124.19-82.56-21.25-9.93-44.17-17.06-67.75-17.87-21.59-.74-42.28,4.58-61.66,13.87-38.08,18.27-70.3,49.39-112,59.83-27.21,6.81-55,1.76-81.7-5.13-13-3.36-26.51-6.54-28.26-22.23-1.2-10.81,1.84-22.37,5-32.64,12.67-41.42,44.08-76.93,84-94,18.79-8,40.23-11.28,56.84-23.85,16-12.11,21.78-31.42,19-50.86-5.48-38.51-38.12-65.81-72.1-80-17.7-7.41-36.43-12.15-55.32-15.34-20.61-3.48-42.1-6-63-5.17-19.1.79-40.09,5.94-51.9,22.2-9,12.37-13.08,30.94-4.18,44.47,4.84,7.35,13,10.59,19.35,16.33,13.92,12.62-5.42,24-16.71,28-23,8.19-49.62,3.13-67.18-14.05-18-17.57-23.93-43-17.17-67,6.51-23.12,21.87-44.64,37.59-62.47,7.8-8.85,16.63-17,27.1-22.6,12.22-6.51,25.43-7.77,39.07-6.93,12.52.77,25,2.78,37.54,2a113.09,113.09,0,0,0,30.28-6.14c41-14.28,72.57-47.68,100.67-79.36,14.21-16,28.78-33.86,34.41-55,4.7-17.63.49-36.84-15.06-47.67-14-9.78-33.52-10.73-48.77-3.26-17.81,8.73-29.53,27-33.79,45.94-4.37,19.47-1.31,39.88-6.17,59.27-2.61,10.42-8.11,20.15-17.62,25.69-9.11,5.3-20.38,5.46-30.28,2.45-23.35-7.1-34.68-29.94-34.66-53.17,0-24.24,10.55-48.1,25.94-66.5,15-17.92,35.49-28,53.65-42.11,14.28-11.07,25.17-25,27.67-43.28,4.24-31-14.27-64.76-44.95-73.78-1.86-.55-2.65,2.35-.8,2.89Z"/><path d="M1490.17,677.55C1500.8,695,1496.05,720,1479,731.6c-10.72,7.3-24.61,9.34-37.17,11.22a273.41,273.41,0,0,1-37.94,3,278.71,278.71,0,0,1-143.43-38.18c-82.57-48.56-137.14-132.29-219.85-180.8-19.41-11.38-40.16-20.73-62-26.37A188.31,188.31,0,0,0,945.92,495c-10.69-.82-21.78-.42-31.53,4.52C900,506.73,892.75,521.6,887.48,536c-6.1,16.68-10.06,34.8-20.5,49.5-24.61,34.65-74.92,27.24-108.26,11.34-36.37-17.34-77.22-56.31-71.63-100.45,2.89-22.84,19-40.47,38.37-51.52,21.74-12.38,46.76-16.41,71-20.87,24.55-4.52,48.37-10.81,71.22-21,20.55-9.18,42.72-20.74,58.62-37,12.82-13.12,18.94-31.83,8.45-48.3-9.32-14.64-27.42-23.26-44.48-23.75-23.27-.68-45,10.8-65.42,20.57a323.19,323.19,0,0,1-74.34,25.58c-26.65,5.51-53.18,6.23-80.28,6.32-23.73.08-46.73,2.39-68.8,11.58-38.91,16.2-69.47,47.29-95.78,79.32C492,454,477.52,471.19,466.63,489.87c-9.82,16.83-16.7,38.58-3.56,55.67,10.8,14,29.82,17.06,46.3,19,20,2.33,39.14,4.07,57.46,13.19,36.21,18,61.54,53.81,72.54,92.11,12.45,43.36,4.68,89.58-13.77,130.08a306,306,0,0,1-36,59.17c-7.15,9.32-14.77,18.28-22.76,26.89-8.17,8.81-17,17.09-24.41,26.55-13.19,16.76-18.61,36.39-14.22,57.43,4.44,21.27,17.14,39.62,33.17,53.9,16.86,15,36.84,25.91,56.56,36.62,1.7.92,3.21-1.67,1.51-2.59-39.6-21.51-88.1-49.82-89.83-100.8-.88-25.93,15.41-44.07,32.33-61.6A384.38,384.38,0,0,0,605,842.63c24.93-37.24,42.48-80.46,43.48-125.72A164.43,164.43,0,0,0,611.42,610a133.28,133.28,0,0,0-43.7-35.17c-17-8.36-34.82-10.77-53.44-12.75-18.05-1.91-40.73-4.28-51-21.54C450,518.3,467.58,492,480.77,474.24c26-35,53.79-70.71,89.95-95.8,17.46-12.12,36.91-21.4,57.81-25.7,26.63-5.48,54-2.21,81-4a309.8,309.8,0,0,0,74.93-14.49c24.08-7.85,45.86-20.39,69.34-29.57,21.21-8.29,44.56-11.79,64.68,1.17,8.12,5.23,15.17,12.89,17.8,22.37,3.23,11.65-1.32,23.26-8.85,32.19-7.33,8.69-16.89,15.24-26.41,21.31a268.84,268.84,0,0,1-33.16,18c-23.4,10.64-47.87,17-73.08,21.63-40.54,7.45-93,18-108,63-13.18,39.62,16.25,78.66,46.57,100.9,29,21.27,71.43,36.27,107,23.78,16.43-5.78,28.43-17.8,35.89-33.35,7.63-15.91,11-33.45,18.53-49.4,3.5-7.47,8-14.66,14.54-19.87,9.45-7.54,21.38-9.15,33.13-8.58,23.49,1.15,46.71,7.64,68.17,17C1098.91,553.54,1155,636.4,1231.24,692c39.18,28.55,83.86,47.73,132,54.27a279.72,279.72,0,0,0,71.83.49c20-2.47,44-5.36,56.2-23.49,9.33-13.91,10.2-32.87,1.45-47.23-1-1.65-3.6-.14-2.59,1.51Z"/><path d="M495,913c-59.2-16.6-115.15-47.3-159.8-89.74-21.39-20.34-40.91-45.85-43.47-76.26-2.44-28.94,11-56.92,39.22-67.26,29.47-10.8,60.73-1.41,88,11.17,29,13.39,56.89,28.86,86.85,40.16s61.18,18.43,93.26,17.4c33.12-1.07,68.36-9.82,100.93-.19,24.74,7.32,51.56,28.49,52.51,56.34,1,27.69-30.56,47.09-23.94,75.53,2.91,12.5,14.06,18.08,25.45,21.32,15,4.27,30.31,7.69,45.64,10.46,29.72,5.37,60.28,7.82,90.34,3.91A187.11,187.11,0,0,0,933.4,905c12.09-4.68,23.9-10.66,33.12-20,8.25-8.32,13.91-19.43,12-31.4-2.11-13.16-12.16-24.28-21.74-32.86-20.87-18.7-47.33-29.18-71.23-43.22-23.31-13.68-47.63-35-52.46-63-5.35-31.09,18.46-55.48,42.86-70.43,25.94-15.9,55.39-24.55,84.51-32.56,27.19-7.47,55-14.24,80.45-26.68,22.85-11.17,44.41-26.62,60-46.94,14.67-19.15,22.72-42.69,19.72-66.9-2.82-22.74-14.64-42.7-28.48-60.49-15.56-20-33.73-37.8-49.15-57.92-15.56-20.3-26.91-42.74-30.11-68.36a141.28,141.28,0,0,1,11.06-74.12c10.39-23.48,26.79-41.67,47.52-56.48,17.06-12.19,40.24-26.26,43.08-49.14,3.21-25.86-21.55-43.25-43.43-49.73-61-18.08-119,21.4-166.82,54-13.12,8.94-26.33,17.8-40.14,25.65s-28.35,14.37-42.5,21.6c-13.49,6.89-26.52,14.59-38.09,24.43-12.29,10.45-23,22.59-35.31,33-21.53,18.26-48,31.87-76.13,36a102.49,102.49,0,0,1-42.72-2.37c-14.65-4.14-27.21-12.45-40-20.36-13-8-26.32-14.6-41.52-17.07-14.55-2.36-29.4-1.5-43.84,1.18-31.9,5.92-60.83,20.93-90.82,32.58-27.31,10.61-56.44,18.44-85.81,12.78-26.34-5.08-50-20.7-58.53-47.07-9.29-28.58-1.77-59.45-2.45-88.77A137.81,137.81,0,0,0,188.45.16c-1.74-.82-3.26,1.76-1.51,2.59a134.67,134.67,0,0,1,58.43,54.11c14.44,24.85,19,51.84,17.75,80.26-1.23,27.7-6,57.84,7.23,83.57,11,21.49,33.09,34,56.21,38.49,61.25,11.8,114-30.9,171.18-43.91,16.11-3.66,32.89-5.25,49.29-2.64,16.13,2.57,30,10,43.7,18.57,12,7.52,24.08,15,37.85,18.86a103.71,103.71,0,0,0,39.37,3c26.95-2.95,52.61-14.66,74.15-30.85,11.86-8.92,22.11-19.57,32.8-29.8a185.72,185.72,0,0,1,39.68-29.25c13.65-7.46,27.89-13.77,41.67-21A442.7,442.7,0,0,0,897.58,117c26.28-17.68,52.07-36.87,81.34-49.45,28.37-12.2,61.11-18.77,91.36-9.81,13.81,4.09,27.62,11.59,35.73,23.91a33.77,33.77,0,0,1,.7,36.3c-12.57,21.27-37.84,31.41-55.33,47.88s-29.87,37.8-36.62,60.71a142.05,142.05,0,0,0-2.6,71c5.37,23.77,18.07,44.2,33.23,63,29.61,36.64,75.23,73.14,72.8,125-2.61,55.56-58.38,91.6-105.75,107.75-28.53,9.72-58.1,16-86.72,25.46-26.58,8.78-53.94,20.51-74.26,40.33-18.76,18.29-27.8,43.64-17.62,68.78,9.91,24.5,32,42.06,54.33,54.72,24.68,14,52.11,25,72.12,45.78,10.77,11.17,19.95,26,13.19,41.65-5.62,13.06-18.57,22.08-31,27.95-57.77,27.24-126,17.33-185.4,1.26-7.28-2-15-4.28-20.38-9.9-5.14-5.4-6.46-13.09-5.67-20.27,1.7-15.35,12.29-27.18,18.84-40.58,5.28-10.8,7.23-22.49,4.1-34.22s-10.35-21.74-19.14-29.73c-21.73-19.74-49.79-24.25-78.24-23.16-17,.65-33.83,2.89-50.79,3.83A211.64,211.64,0,0,1,555,742.12c-32.25-6-62.76-18.84-92.18-33-28-13.49-55.87-30.58-87-35.72-24.57-4.05-52.72.51-70.31,19.5-17.12,18.48-20.34,46.28-13.93,69.89,7.5,27.64,27.43,50.13,48.31,68.8a387.39,387.39,0,0,0,73.47,51.59,392,392,0,0,0,80.94,32.74A1.5,1.5,0,0,0,495,913Z"/><text class="894ceeb8-67e2-4acd-9f52-4bafde136d31" transform="translate(466.54 599.62)">404</text><path d="M245.82,895.79c-32.6-62.17-38.68-142-.2-203.16C263,665,289,644.35,320.34,635c29.47-8.79,62.66-7.89,90.4,6.14,26.11,13.2,45.38,38.29,45.58,68.36.09,13.56-4.56,27.39-15.75,35.73-14,10.41-34.08,10.42-50.36,6.54-31.12-7.42-57.43-32-68.6-61.72a86.92,86.92,0,0,1-3.89-47.9c3.64-18.16,12-34.87,20.77-51,8.4-15.41,17.4-30.58,24.05-46.86a173.16,173.16,0,0,0,12.09-50.54c2.92-33.9-4.18-69-22-98.16-32.78-53.61-102.69-84-163.06-61.39-27.81,10.42-52.05,30.71-66.68,56.61C108.06,417,99.52,455.91,124.12,479c11.56,10.86,27.11,17.82,42.21,22.14a122.34,122.34,0,0,0,48.72,4c30.18-3.81,57.44-20.53,70.88-48.32,11.82-24.43,12.79-55.48-3.63-78.13-18.24-25.17-49.81-33.83-77.93-42.85-35.11-11.27-68.77-28.38-92.8-57.24-5.94-7.13-10.75-15.64-10.75-25.16,0-8.68,3.72-17,9.2-23.56,11.86-14.28,30-19.94,48.07-17.12,18.89,3,35.81,13.34,50.54,25.06,1.5,1.19,3.63-.92,2.12-2.12-25.35-20.16-62.92-38.6-93.05-17-11.48,8.24-20.48,21.49-19.86,36.09.71,16.62,14,29.67,25.52,40.16a188.13,188.13,0,0,0,46.07,30.89c14.84,7,30.59,11.68,46.17,16.72,30.26,9.78,63.88,23.46,73.48,57,8.38,29.31-3.3,63.19-26.44,82.57C235.08,505.3,195,507.67,161.93,496.66c-16.49-5.48-34.94-14.59-44.12-30.06-9.67-16.31-6.74-37.54-1-54.72,10.25-30.94,34.36-56.39,63.49-70.48,63.6-30.76,141.43,2.45,173.78,62.67,17.53,32.63,22.13,71.51,15.06,107.68-3.55,18.16-10.28,35.17-18.82,51.54s-18.36,32.23-25.89,49.18c-6.7,15.08-11.7,31.35-11.48,48A93.21,93.21,0,0,0,324,702.67c14.1,26.61,40.22,47.61,70.15,53,15.13,2.71,32.72,2.11,46-6.5,10-6.5,16.21-17.11,18.27-28.76,4.68-26.47-8.18-54.25-28.74-70.67-46.94-37.46-120-27.7-162.42,11.93-48.94,45.69-60.41,119.85-44.47,182.59a243.33,243.33,0,0,0,20.45,53c.9,1.71,3.49.2,2.59-1.51Z"/><path d="M934.48,25.81c-61.27,29.6-104.2,96.63-99.15,165.44,2.56,34.92,18.41,68,47.66,88.16a95.43,95.43,0,0,0,44.58,16.65c15.52,1.5,30.87-1.84,45.2-7.69,29.39-12,54.14-33.25,84-44.11,14.43-5.24,30.2-7.53,45.29-3.83,14.23,3.5,26.64,12,36.08,23.12,20.13,23.63,27.14,57.78,17.5,87.29-5.59,17.11-16.37,33-32.17,42.18-16.52,9.56-36.37,10.65-54.82,7.38-38.68-6.84-70.16-31.92-106.19-45.83-28-10.79-63-13.9-88.68,4.5A57.64,57.64,0,0,0,859.46,374,1.52,1.52,0,0,0,860,376c29,18.56,63.66,22.61,96.9,28.11,34.78,5.76,68.64,14.52,95,39.28,25.61,24,41.26,57,47.2,91.3a229,229,0,0,1,1.79,61c-1.93,19.82-5.38,40.4-12.46,59.09-26.33,69.56-110.33,47.3-167.2,61-24.78,6-51.59,18.46-62.31,43.21C847,786.63,860.69,814,875,837.57c17,27.92,36.23,56.54,28.21,90.83a75.91,75.91,0,0,1-101,53.61c-1.81-.68-2.59,2.22-.8,2.89,31,11.72,68.21,2.55,89.11-23.53a81.54,81.54,0,0,0,17.38-42.94c1.54-15.93-2.39-31.23-9.11-45.58-6.82-14.57-15.94-27.89-24.12-41.7-7.94-13.41-15.6-27.88-17.12-43.65A54.7,54.7,0,0,1,871,745.83c9.66-10.85,22.9-18,36.45-22.75,30.12-10.62,61.55-8.67,92.84-11.47,29.36-2.63,61.09-9.8,79.74-34.69,11.53-15.39,16.25-34.79,19.84-53.34a269.87,269.87,0,0,0,5.15-60c-1.19-36.41-11.44-72.61-33.21-102.16-20.26-27.5-48.31-45-81.2-53.51-34.65-8.92-71.27-9.72-105-22.39a128.6,128.6,0,0,1-24.12-12l.54,2.05c18.9-28.18,58.26-31,88.14-22,37.19,11.23,68.19,36.9,105.76,47.11,32.48,8.83,68.36,4.92,89.69-23.68,18.18-24.38,21.78-56.94,11.81-85.32-9-25.55-29.08-48.65-56.41-54.5-29.64-6.34-57.64,8.39-82.35,23-27.13,16-55.88,35.45-88.88,33.14-36.08-2.53-67.49-28.28-81.62-60.82-29.9-68.86,7-151.67,66.25-191.69A172.86,172.86,0,0,1,936,28.4c1.74-.84.22-3.43-1.51-2.59Z"/><path d="M82.9,827c17,6.61,31,19.66,48.74,24.6,13.57,3.79,27.59.87,37.8-9,10.05-9.71,15.28-23.86,16.28-37.6,1.17-16.17-4.66-31.52-13-45.12-20.44-33.2-56.36-57-66.92-96-5.43-20.06-.66-40.06,12.54-56,5.24-6.31,42.25-39.67,46.79-21.81,2.11,8.3-4.54,16.87-8.92,23.19-5.59,8.05-10.8,16.45-14.3,25.65-5.64,14.81-5.55,31.77,4.26,44.86,9.94,13.25,25.77,15,40.16,8,8.7-4.22,16.27-10.54,23.82-16.49q13.39-10.57,26.37-21.66,12.61-10.78,24.8-22c7-6.45,14.77-12.84,20-20.91,9.39-14.58,3.22-31.81-8.9-42.65-14.16-12.66-34.06-16.85-50.57-25.52a200.33,200.33,0,0,1-44.49-32.35c-27.07-25.69-48-57.11-66.7-89.21-4.56-7.84-8.81-15.86-13.39-23.68C93,386.21,87.94,379.85,80,377c-8.35-3-17.71-2.36-26.34-1.19a113.23,113.23,0,0,0-28.5,7.74,115.55,115.55,0,0,0-24.51,14c-1.53,1.14,0,3.75,1.51,2.59a111.71,111.71,0,0,1,55.25-21.8c9.88-1,21.17-1.1,29.08,5.84,6.76,5.93,10.56,15,14.9,22.76,17.28,30.68,36.12,60.87,59.83,87a235.33,235.33,0,0,0,37.65,33.92c14.37,10.24,29.84,17.49,46.1,24.14,17,6.94,39.07,18.82,38,40.39-.5,10.28-7.93,18-15,24.7q-11.6,11.07-23.65,21.64c-16.07,14.17-32.51,28.73-50.23,40.82-8.32,5.68-18.16,10.79-28.55,9.19-8.69-1.34-15.54-7.39-19.71-14.91-9.68-17.45-3.3-37.07,6.29-53,5.74-9.56,21.36-25.19,15-37.8-7.16-14.18-29.42,3.4-36.66,9-12.33,9.58-22.81,22.16-27.5,37.25-11.22,36.1,14.8,69.39,37.25,94.67s50,55.33,40.68,91.85c-3.56,13.94-12.42,27.91-26.64,32.72-17.4,5.88-34.05-4.34-48.47-13-7.15-4.28-14.34-8.46-22.13-11.48-1.8-.7-2.58,2.2-.8,2.89Z"/><path d="M1005.61,912.86c25.79-7.23,45.22-31.65,46.54-58.43,1.61-32.5-23.34-58.4-37.58-85.31-16-30.19-24.27-67.54-5.69-98.55,7.74-12.91,19.8-23.61,34.59-27.45,17.53-4.55,34.93,2.8,39.11,21.33,4,18-4.27,35.37-6.72,52.91-1.74,12.49-.16,27.06,9.23,36.41a22.64,22.64,0,0,0,28.46,2.79c9.66-6.39,9-17.29,3-26-3.73-5.43-8.89-10.21-11.1-16.54-2.42-6.92.39-13.52,6.09-17.79,13.15-9.85,28.88-3.73,37.88,8.41,14.55,19.64,27.23,67.76-6.4,75.66-12.48,2.93-27.45.4-38,9.1s-10.4,24.12-7.24,36.26c2.2,8.47,5.7,16.58,7.39,25.18,1.52,7.73.85,15.49.68,23.3-.26,11.71,1.35,24.8,13.71,29.7,12,4.76,28.27,1.68,39.76-3.27,12.12-5.22,21.65-14.95,24.34-28.15,3.23-15.86-2.49-31.85-4.23-47.53a60.13,60.13,0,0,1,12.14-44.25c19.93-26.28,52.07-36.74,80.26-51.29,25.91-13.37,50.27-33.16,54.53-63.84,1.68-12.07-.64-24.46-8.12-34.28-7.84-10.29-19.33-17-27.47-27-4.26-5.23-7.12-11.53-5.75-18.38,1.79-9,9.83-15.76,15.46-22.51A262.88,262.88,0,0,0,1329.73,520c3.42-6.33,7.56-13.58,5.44-21-1.88-6.63-7.47-12.7-12.14-17.57-10.45-10.92-23.51-19-37-25.63-29.67-14.61-64.24-22.58-88.69-46.09-11.24-10.82-19.84-25.23-22.14-40.81a48.12,48.12,0,0,1,2.42-24c3-8,8.21-14.85,13.05-21.76C1200,310,1206,296.53,1204.56,280c-1.42-16.24-8.41-31.27-17.07-44.85-9.19-14.42-20.06-27.68-28.67-42.47a1.5,1.5,0,0,0-2.59,1.51c17,29.23,46.28,56.07,45.56,92.41-.36,18.16-11.29,30.57-20.58,45.06-7.73,12.06-11.14,25.25-8.64,39.5,5.43,30.95,31.44,51.16,58.17,63.93,29.1,13.9,62.09,22.22,86.29,44.64,5.7,5.28,13.11,12.36,15.25,20.06,2.58,9.25-5.92,20.44-10.45,28.06-9.27,15.56-20.46,29.23-32,43.09-7.82,9.38-11.16,20.39-4.25,31.27,6.58,10.36,17.51,17.14,25.92,25.85,22.21,23,10.91,58.35-10.25,77.95-24.18,22.4-57.45,30.22-84.6,48-23.63,15.45-43.09,38.61-40.54,68.36,1.39,16.25,7.83,32.85,4.58,49.22-3.18,16-16.9,25.62-32,29.31-14.63,3.58-35.73,4.22-39.24-14.37-1.34-7.1-.54-14.46-.38-21.62a71.46,71.46,0,0,0-2.82-21.89c-4.29-14.76-13.63-34.59-2.15-48.58,9.7-11.82,27.78-8.06,41-11.62,28-7.51,23.9-41.45,15.87-62.49-4.61-12.07-11.82-24.45-24.08-30-9.54-4.3-21.5-2-29.16,5.05-8.61,7.92-7.12,18.58-.83,27.41,3.65,5.12,8.58,9.8,10.56,15.91,2.29,7.09-1.35,13.55-7.87,16.64-15.6,7.39-28-6.32-30.67-20.83-3.19-17.51,4.94-34.34,7.17-51.45,1.66-12.71-.1-27.65-10.17-36.69s-25.23-9.23-37.44-4.88c-25.51,9.1-41.08,35.86-43.15,61.94-2.71,34.25,14.24,64.68,32,92.55,8.78,13.81,17.67,28.21,20.81,44.51a59.6,59.6,0,0,1-8.82,43.63A60.89,60.89,0,0,1,1004.81,910a1.5,1.5,0,0,0,.8,2.89Z"/></g></g></svg>