<svg xmlns="http://www.w3.org/2000/svg" viewBox="0 0 200.56 2268.71"><defs><style>.\32 4f943f2-9af9-4441-9bab-3608a5208534{fill:none;stroke:#000;stroke-linecap:round;stroke-miterlimit:10;stroke-width:5px;}</style></defs><title>line_3</title><g id="f6427227-bbdc-4a15-b8b6-5579d999603a" data-name="Layer 2"><g id="24e1a8d0-8216-4618-a134-3833505f8bf4" data-name="Layer 2"><path class="24f943f2-9af9-4441-9bab-3608a5208534" d="M117.81,2266.21c-41.47-49.49,25.12-126.65-1.52-185.47-7.28-16.08-21-28.75-27.26-45.26-13.9-36.79,13.63-75.73,42.34-102.61s62.84-54.87,66.39-94c3.14-34.65-19.13-65.9-40.28-93.53L50.66,1605.75c-17.56-22.94-36.15-50.74-28.06-78.48,7.07-24.25,32.29-38.85,43.08-61.69,7.65-16.19,7.3-34.86,6.8-52.76l-4.43-157.95c-.79-28.16-1.79-57.22-13.68-82.76-17.63-37.85-58.93-70-50.83-111,6.27-31.74,40.2-50.24,53.78-79.6C82.9,926.25,27.86,864.59,34,804c7.09-70.54,93.37-115.38,95-186.25.93-40.16-26.14-74.79-40.76-112.2C65.42,447.17,73.52,380.1,98.59,322.7,112.16,291.6,131,260,126.52,226.33c-2.92-22-15.69-41.81-18.36-63.85-6.34-52.26,29.65-111.28,9.65-160"/></g></g></svg>