<svg xmlns="http://www.w3.org/2000/svg" viewBox="0 0 197.09 2265.24"><defs><style>.\38 ee52b21-204b-48ba-a30a-419ee2470bae{fill:none;stroke:#000;stroke-linecap:round;stroke-miterlimit:10;stroke-width:1.53px;}</style></defs><title>line_2</title><g id="03e5f6aa-4f6e-4996-9026-18593379388a" data-name="Layer 2"><g id="24fa47d2-5f46-4340-b4bf-bdb505ef7fbf" data-name="Layer 2"><path class="8ee52b21-204b-48ba-a30a-419ee2470bae" d="M116.08,2264.47C74.61,2215,141.2,2137.82,114.56,2079c-7.28-16.08-21-28.75-27.26-45.26-13.9-36.79,13.63-75.73,42.34-102.61s62.84-54.87,66.39-94c3.14-34.65-19.13-65.9-40.28-93.53L48.93,1604c-17.56-22.94-36.15-50.74-28.06-78.48,7.07-24.25,32.29-38.85,43.08-61.69,7.65-16.19,7.3-34.86,6.8-52.76l-4.43-157.95c-.79-28.16-1.79-57.22-13.68-82.76-17.63-37.85-58.93-70-50.83-111,6.27-31.74,40.2-50.24,53.78-79.6,25.58-55.3-29.47-117-23.37-177.59,7.09-70.54,93.37-115.38,95-186.25.93-40.16-26.14-74.79-40.76-112.2C63.68,445.43,71.78,378.36,96.85,321c13.58-31.09,32.4-62.73,27.94-96.36-2.92-22-15.69-41.81-18.36-63.85-6.34-52.26,29.65-111.28,9.65-160"/></g></g></svg>