<svg xmlns="http://www.w3.org/2000/svg" viewBox="0 0 200.56 2266.26"><defs><style>.f96ca885-d9f2-4711-8775-ad800346ab87{fill:none;stroke:#000;stroke-miterlimit:10;stroke-width:5px;}</style></defs><title>line_5</title><g id="020c8eed-d4f2-4a45-98ea-430b129cca70" data-name="Layer 2"><g id="282651d0-ac4e-42fd-8288-cae7bedfb666" data-name="Layer 2"><path class="f96ca885-d9f2-4711-8775-ad800346ab87" d="M117.81,2264.65c-41.47-49.49,25.12-126.65-1.52-185.47-7.28-16.08-21-28.75-27.26-45.26-13.9-36.79,13.63-75.73,42.34-102.61s62.84-54.87,66.39-94c3.14-34.65-19.13-65.9-40.28-93.53L50.66,1604.2c-17.56-22.94-36.15-50.74-28.06-78.48,7.07-24.25,32.29-38.85,43.08-61.69,7.65-16.19,7.3-34.86,6.8-52.76l-4.43-157.95c-.79-28.16-1.79-57.22-13.68-82.76-17.63-37.85-58.93-70-50.83-111,6.27-31.74,40.2-50.24,53.78-79.6C82.9,924.7,27.86,863,34,802.42,41,731.88,127.32,687,129,616.17,129.9,576,102.83,541.38,88.21,504,65.42,445.62,73.52,378.55,98.59,321.15c13.58-31.09,32.4-62.73,27.94-96.36-2.92-22-15.69-41.81-18.36-63.85-6.34-52.26,29.65-111.28,9.65-160"/></g></g></svg>