<svg xmlns="http://www.w3.org/2000/svg" viewBox="0 0 320.96 433.73"><title>night_icon</title><g id="a6a342d4-56de-445d-b249-67bdbe4e5037" data-name="Layer 2"><g id="d95f23dc-e12a-41da-b417-ec68f4463ade" data-name="Layer 2"><path d="M181.78,15A214.92,214.92,0,0,0,60.5,208.86c0,105.55,76.34,193.6,176.7,211.85q-10.12,1-20.33,1A204.92,204.92,0,0,1,137.12,28.09,202.86,202.86,0,0,1,181.78,15M216.86,0C97.09,0,0,97.09,0,216.86S97.09,433.73,216.86,433.73A215.88,215.88,0,0,0,321,407.15a204,204,0,0,1-45.14,5c-112.29,0-203.32-91-203.32-203.32C72.5,99.64,158.63,10.54,266.67,5.76A217.46,217.46,0,0,0,216.86,0Z"/></g></g></svg>