<svg xmlns="http://www.w3.org/2000/svg" viewBox="0 0 305.02 433.05"><title>night-icon</title><g id="c15f5dd7-6663-4715-9d7b-65c1787bdd55" data-name="Layer 2"><g id="da8231b1-582d-4105-9756-88a086583003" data-name="Layer 2"><path d="M216.86,7a210.1,210.1,0,0,1,47,5.27C151.65,24.25,64,119.51,64,234.86A224.24,224.24,0,0,0,160.61,419.1,209.87,209.87,0,0,1,216.86,7m0-7C97.09,0,0,97.09,0,216.86,0,330.84,87.93,424.28,199.66,433A216.9,216.9,0,0,1,71,234.86C71,115.09,168,18,287.82,18q8.68,0,17.2.68A216.08,216.08,0,0,0,216.86,0Z"/></g></g></svg>