<svg xmlns="http://www.w3.org/2000/svg" viewBox="0 0 220.84 220.84"><defs><style>.\36 eaca5cf-519a-4216-8c85-86534bd32617,.b1ee8e10-aa22-4ce8-bb19-874916fc4781,.d91fa1d8-fe23-4a55-be6f-01b2bb1ecb8f{stroke:#000;}.b1ee8e10-aa22-4ce8-bb19-874916fc4781{stroke-miterlimit:10;stroke-width:3.02px;}.\36 eaca5cf-519a-4216-8c85-86534bd32617,.d91fa1d8-fe23-4a55-be6f-01b2bb1ecb8f{fill:none;stroke-linecap:round;stroke-linejoin:round;}.\36 eaca5cf-519a-4216-8c85-86534bd32617{stroke-width:9.05px;}.d91fa1d8-fe23-4a55-be6f-01b2bb1ecb8f{stroke-width:12.06px;}</style></defs><title>random-icon_1</title><g id="c5c6eafb-ce45-4e31-8cb0-5051cf1ed5ac" data-name="Layer 2"><g id="70072cdb-8b19-4ca8-a41c-422ad2537bc5" data-name="Layer 2"><path class="b1ee8e10-aa22-4ce8-bb19-874916fc4781" d="M103.85,134.86a5.52,5.52,0,0,1-5.45-6.4,29.17,29.17,0,0,1,2.33-7.68,24.9,24.9,0,0,1,9.69-10.36q2.68-1.79,6.18-3.73a42.4,42.4,0,0,0,6.63-4.54,23.9,23.9,0,0,0,5.29-6.26,16.82,16.82,0,0,0,2.16-8.72A16.26,16.26,0,0,0,125,74.43a17.7,17.7,0,0,0-5.81-3.28A21.1,21.1,0,0,0,112.36,70a22.24,22.24,0,0,0-7.08,1.12,24.8,24.8,0,0,0-6.18,3.05A26,26,0,0,0,94,78.75q-.52.61-1,1.24a5.45,5.45,0,0,1-7.32,1.16h0a5.55,5.55,0,0,1-1.49-7.76,27.58,27.58,0,0,1,2.53-3.2,32.25,32.25,0,0,1,7.45-6A35.66,35.66,0,0,1,103,60.42a36.82,36.82,0,0,1,9.61-1.27,35.55,35.55,0,0,1,10.88,1.71,27.22,27.22,0,0,1,9.54,5.29,26.53,26.53,0,0,1,6.71,8.94,29.4,29.4,0,0,1,2.53,12.67,26.74,26.74,0,0,1-1.57,9.69,24.3,24.3,0,0,1-4.1,7,27.42,27.42,0,0,1-6,5.21q-3.43,2.24-7.15,4.32-2.68,1.49-5.37,3.13a20.12,20.12,0,0,0-4.7,4,18.67,18.67,0,0,0-3.28,5.59,17.58,17.58,0,0,0-.92,3.52,5.52,5.52,0,0,1-5.42,4.68Zm7.51,23.46a8,8,0,1,1-8-8A8,8,0,0,1,111.36,158.32Z"/><path class="6eaca5cf-519a-4216-8c85-86534bd32617" d="M153,207.4a106,106,0,1,1,33-22.79"/><circle class="d91fa1d8-fe23-4a55-be6f-01b2bb1ecb8f" cx="185.98" cy="184.61" r="7.38"/><circle class="6eaca5cf-519a-4216-8c85-86534bd32617" cx="153.01" cy="207.4" r="6.69"/></g></g></svg>